<?xml version="1.0" encoding="UTF-8" standalone="no"?>
<svg
   xmlns:dc="http://purl.org/dc/elements/1.1/"
   xmlns:cc="http://creativecommons.org/ns#"
   xmlns:rdf="http://www.w3.org/1999/02/22-rdf-syntax-ns#"
   xmlns:svg="http://www.w3.org/2000/svg"
   xmlns="http://www.w3.org/2000/svg"
   id="svg8"
   version="1.1"
   viewBox="0 0 297 210"
   height="210mm"
   width="297mm">
  <defs
     id="defs2" />
  <metadata
     id="metadata5">
    <rdf:RDF>
      <cc:Work
         rdf:about="">
        <dc:format>image/svg+xml</dc:format>
        <dc:type
           rdf:resource="http://purl.org/dc/dcmitype/StillImage" />
        <dc:title></dc:title>
      </cc:Work>
    </rdf:RDF>
  </metadata>
  <g
     transform="translate(0,-87)"
     id="layer1">
    <path
       id="path4526"
       d="M 89.999999,195 H 110"
       style="fill:none;stroke:#cccccc;stroke-width:0.26458332px;stroke-linecap:butt;stroke-linejoin:miter;stroke-opacity:1" />
    <path
       id="path4528"
       d="M 89.999999,195 92,187 l 2,4 h 2 l 2,1 2,3 2,3 h 2 l 2,1 2,4 2,-8"
       style="fill:none;stroke:#800000;stroke-width:0.26499999;stroke-linecap:round;stroke-linejoin:round;stroke-miterlimit:4;stroke-dasharray:none;stroke-opacity:0.6130653" />
    <path
       id="path4530"
       d="m 89.999999,195 1,-6 L 92,187 l 0.999998,1 1.000001,3 1.000001,1 1,-1 h 0.999998 l 1.000001,1 1,1 1.000001,2 1,2 1,1 1,1 1,-1 h 1 l 1,1 2,4 1,-2 1,-6"
       style="fill:none;stroke:#008000;stroke-width:0.265;stroke-linecap:round;stroke-linejoin:round;stroke-opacity:0.60804021;stroke-miterlimit:4;stroke-dasharray:none" />
  </g>
</svg>
